<?xml version="1.0" standalone="no"?>
<!DOCTYPE svg PUBLIC "-//W3C//DTD SVG 20010904//EN"
 "http://www.w3.org/TR/2001/REC-SVG-20010904/DTD/svg10.dtd">
<svg version="1.0" xmlns="http://www.w3.org/2000/svg"
 width="512.000000pt" height="512.000000pt" viewBox="0 0 512.000000 512.000000"
 preserveAspectRatio="xMidYMid meet">
<metadata>
Created by potrace 1.11, written by Peter Selinger 2001-2013
</metadata>
<g transform="translate(0.000000,512.000000) scale(0.100000,-0.100000)"
fill="#000000" stroke="none">
<path d="M1035 5110 c-112 -17 -134 -21 -220 -46 -313 -89 -562 -299 -695
-587 -35 -76 -75 -194 -87 -257 -31 -163 -32 -189 -29 -1690 1 -822 5 -1511 9
-1530 32 -152 42 -193 64 -255 130 -363 413 -613 797 -705 45 -11 108 -23 141
-27 33 -5 737 -8 1565 -8 1414 0 1510 1 1595 18 438 88 743 349 875 747 68
206 65 114 65 1770 0 822 -3 1524 -7 1560 -17 145 -69 308 -139 439 -157 292
-432 485 -794 558 -84 16 -189 18 -1590 19 -825 1 -1522 -2 -1550 -6z"/>
</g>
</svg>
